<?xml version="1.0" standalone="no"?>
<!DOCTYPE svg PUBLIC "-//W3C//DTD SVG 20010904//EN"
 "http://www.w3.org/TR/2001/REC-SVG-20010904/DTD/svg10.dtd">
<svg version="1.0" xmlns="http://www.w3.org/2000/svg"
 width="274.000000pt" height="145.000000pt" viewBox="0 0 274.000000 145.000000"
 preserveAspectRatio="xMidYMid meet">

<g transform="translate(0.000000,145.000000) scale(0.100000,-0.100000)"
fill="#000000" stroke="none">
<path d="M1326 1384 c-19 -31 -40 -82 -47 -112 -18 -88 -1 -141 86 -267 56
-82 65 -134 36 -200 -22 -50 -32 -51 -57 -3 -11 22 -15 49 -12 89 5 65 -6 69
-22 8 -12 -45 -6 -87 20 -140 30 -58 45 -65 67 -32 62 89 55 195 -20 296 -74
98 -87 192 -41 285 14 29 31 51 38 49 6 -2 22 -22 34 -46 32 -56 40 -144 19
-205 -21 -62 -12 -58 18 7 27 56 32 126 15 189 -12 40 -68 130 -86 135 -7 2
-28 -22 -48 -53z"/>
<path d="M1070 1216 c0 -36 27 -106 57 -144 23 -31 108 -80 119 -69 3 2 -10
14 -29 25 -43 25 -82 76 -95 125 -10 35 -9 37 13 37 40 0 117 -61 152 -120 37
-60 44 -50 12 17 -27 55 -97 117 -156 137 -62 21 -73 20 -73 -8z"/>
<path d="M1609 1226 c-88 -31 -146 -86 -173 -164 -19 -52 -13 -54 13 -4 33 64
119 132 168 132 12 0 14 -7 9 -31 -10 -50 -45 -99 -95 -131 -43 -28 -36 -30
24 -8 52 20 105 101 119 183 8 42 -2 46 -65 23z"/>
<path d="M1105 985 c-22 -9 -51 -24 -65 -35 -25 -20 -25 -20 -5 -33 35 -21 79
-35 113 -36 36 -1 96 21 107 39 6 9 2 9 -14 0 -28 -15 -108 -15 -146 0 -28 11
-29 12 -11 25 28 21 114 36 165 30 37 -5 43 -4 28 5 -30 19 -127 21 -172 5z"/>
<path d="M1493 989 c-18 -5 -33 -11 -33 -12 0 -2 31 -3 69 -3 46 0 82 -6 111
-19 l41 -19 -27 -14 c-33 -17 -113 -19 -143 -3 -11 7 -21 8 -21 2 0 -20 73
-43 120 -38 46 6 120 35 120 47 0 4 -23 19 -50 34 -56 31 -136 41 -187 25z"/>
<path d="M111 276 c-55 -140 -101 -258 -101 -261 0 -3 7 -5 15 -5 8 0 17 12
21 27 3 16 14 53 23 83 l18 55 108 0 109 0 31 -80 c28 -72 34 -80 59 -83 21
-3 27 0 23 10 -3 7 -49 123 -102 258 -53 135 -98 246 -100 248 -1 2 -48 -112
-104 -252z m138 41 c22 -59 41 -112 41 -117 0 -6 -41 -10 -95 -10 -56 0 -95 4
-95 10 0 23 93 241 100 233 4 -4 26 -57 49 -116z"/>
<path d="M1392 513 c-57 -20 -126 -91 -146 -150 -59 -174 39 -343 209 -360
203 -21 341 154 284 362 -14 53 -99 136 -155 153 -55 16 -139 14 -192 -5z
m173 -12 c109 -49 162 -197 120 -338 -29 -99 -128 -164 -222 -148 -154 25
-229 225 -148 392 49 100 152 139 250 94z"/>
<path d="M2437 288 c-53 -134 -99 -251 -103 -260 -4 -13 -1 -18 10 -18 10 0
19 15 26 43 6 23 17 60 24 82 l13 40 108 0 109 0 32 -80 c28 -70 35 -80 59
-83 20 -3 26 0 22 10 -2 7 -48 123 -101 258 -54 134 -98 246 -100 248 -2 1
-47 -106 -99 -240z m134 24 l47 -117 -95 -3 c-53 -1 -98 -1 -100 2 -3 3 16 59
42 126 26 67 50 118 53 115 4 -4 28 -59 53 -123z"/>
<path d="M540 265 l0 -255 25 0 25 0 0 126 0 126 93 -3 c55 -2 91 1 89 6 -1 6
-42 10 -90 10 l-87 0 -3 119 -3 119 93 -6 c51 -4 104 -10 117 -13 18 -5 23 -4
19 7 -4 11 -35 15 -141 17 l-137 3 0 -256z"/>
<path d="M940 265 l0 -256 117 3 c89 2 117 6 121 17 4 11 -2 13 -26 8 -17 -4
-61 -9 -97 -13 l-65 -7 0 252 0 251 -25 0 -25 0 0 -255z"/>
<path d="M1900 265 l0 -255 25 0 25 0 0 115 0 115 39 0 c45 0 39 5 163 -137
92 -105 93 -106 96 -75 3 28 -8 45 -77 124 -45 51 -81 95 -81 99 0 4 14 12 30
19 51 21 80 65 80 119 0 93 -60 130 -207 131 l-93 0 0 -255z m185 231 c91 -38
84 -192 -11 -232 -20 -8 -55 -14 -77 -12 l-42 3 -3 128 -3 127 51 0 c28 0 66
-6 85 -14z"/>
</g>
</svg>
